<svg width="24" height="30" viewBox="0 0 24 30" fill="none" xmlns="http://www.w3.org/2000/svg">
<path d="M13.4 4.65002V0.400024H0V29.6H13.4V25.35C10.655 25.35 8.0224 24.2595 6.08144 22.3185C4.14044 20.3775 3.05 17.745 3.05 15C3.05 12.255 4.14044 9.62243 6.08144 7.68147C8.0224 5.74047 10.655 4.65002 13.4 4.65002Z" fill="#475569"/>
<path d="M13.4 4.65002V25.35C16.145 25.35 18.7776 24.2595 20.7186 22.3185C22.6596 20.3775 23.75 17.745 23.75 15C23.75 12.255 22.6596 9.62243 20.7186 7.68147C18.7776 5.74047 16.145 4.65002 13.4 4.65002Z" fill="#475569"/>
</svg>
