<svg width="24" height="24" viewBox="0 0 24 24" fill="none" xmlns="http://www.w3.org/2000/svg">
<path d="M12.308 15.471L12.384 14.407L13.311 13.878C14.2011 13.3622 15.0188 12.7307 15.743 12C18.383 9.359 19.189 6.254 18.218 5.282C17.246 4.312 14.141 5.116 11.5 7.757C10.74 8.517 10.103 9.347 9.62199 10.189L9.09199 11.116L8.02899 11.192C7.15665 11.2532 6.32886 11.6005 5.67399 12.18C6.92394 12.73 8.06037 13.5083 9.02499 14.475C10.005 15.455 10.777 16.592 11.32 17.826C11.8995 17.1711 12.2468 16.3433 12.308 15.471ZM9.33499 18.3C9.13388 18.5735 8.91224 18.8312 8.67199 19.071C7.49999 20.243 5.73199 20.596 3.36799 20.131C2.90399 17.768 3.25799 16 4.42799 14.828C4.67599 14.582 4.93399 14.36 5.19999 14.165C4.3802 13.7645 3.50413 13.4914 2.60199 13.355C2.89243 12.4433 3.3976 11.6147 4.07499 10.939C5.09339 9.91806 6.44655 9.29972 7.88499 9.198C8.48877 8.15319 9.22857 7.19314 10.085 6.343C13.405 3.023 17.679 1.916 19.632 3.868C21.584 5.821 20.476 10.095 17.157 13.414C16.3069 14.2704 15.3468 15.0102 14.302 15.614C14.2003 17.0524 13.5819 18.4056 12.561 19.424C11.8858 20.1023 11.0571 20.608 10.145 20.898C10.0086 19.9959 9.73547 19.1198 9.33499 18.3ZM7.60999 15.89C7.44896 15.7286 7.26741 15.5891 7.06999 15.475C6.63799 15.625 6.12999 15.955 5.66499 16.419C5.44599 16.639 5.17799 17.378 5.17499 18.324C6.12099 18.321 6.86299 18.05 7.07999 17.834C7.54499 17.368 7.87499 16.861 8.02399 16.429C7.91024 16.2316 7.77105 16.0501 7.60999 15.889V15.89ZM15.388 8.11C15.2903 8.01827 15.2121 7.90785 15.1579 7.78529C15.1037 7.66273 15.0747 7.53054 15.0727 7.39656C15.0706 7.26258 15.0954 7.12955 15.1458 7.00537C15.1961 6.88119 15.2709 6.76839 15.3657 6.67368C15.4605 6.57896 15.5733 6.50426 15.6975 6.45401C15.8217 6.40376 15.9548 6.37899 16.0888 6.38116C16.2228 6.38334 16.3549 6.41242 16.4774 6.46667C16.6 6.52093 16.7103 6.59926 16.802 6.697C16.9744 6.88716 17.0671 7.13635 17.0609 7.39297C17.0547 7.64959 16.95 7.89399 16.7685 8.07557C16.5871 8.25715 16.3428 8.36199 16.0861 8.3684C15.8295 8.37481 15.5803 8.28229 15.39 8.11H15.388Z" fill="#0F172A"/>
</svg>
